<svg width="187" height="20" version="1.1" xmlns="http://www.w3.org/2000/svg">
 <style>
  svg:hover #R { fill: #f25846 }
  svg:hover #C { fill: #2d378b }
  @media (prefers-color-scheme: dark) {
   #R { fill: #9300ff }
   #C { fill: #f25846 }
   #R:hover { fill: #f25846 }
   #C:hover { fill: #9300ff }
  }
 </style>
 <g id="R" fill="#2d378b" aria-label="Repair">
  <path d="m0 20h3v-20h-3v20"/>
  <path d="m 9,13 3,7 H 15 L 12,13 H 9"/>
  <path d="m5 5e-4h5c3 0 7 1 7 6 0 5-4 6-7 6h-5v-3l5-0c3-0 3-1 3-3 0-1-0-3-3-3h-5v-3"/>
  <path d="m20 20h3v-20h-3v20"/>
  <path d="m25 20 10-0v-3l-10 0v3"/>
  <path d="m25 12 9-0v-3l-9 0v3"/>
  <path d="m25 3h10v-3h-10v3"/>
  <path d="m40 20h3v-20h-3v20"/>
  <path d="m44 5e-4h5c3 0 7 1 7 6 0 5-4 6-7 6h-5v-3l5-0c3-0 3-1 3-3 0-1-0-3-3-3h-5v-3"/>
  <path d="m63 16h4l-1.305-4h-1.333l-1.3618 4"/>
  <path d="m63 0 8.2863 20h3.7137l-8.3477-20h-3.6522"/>
  <path d="m64 5.3552-5.4054 14.645h-3.5943l7.3069-19 1.6931 4.3556"/>
  <path d="m78 20h3v-20h-3v20"/>
  <path d="m85 20h3v-20h-3v20"/>
  <path d="m90 5e-4h5c3 0 7 1 7 6 0 5-4 6-7 6h-5v-3l5-0c3-0 3-1 3-3 0-1-0-3-3-3h-5v-3"/>
  <path d="m94 13 2.517 7h3.483l-2.517-7h-3.483"/>
 </g>
 <g id="C" fill="#f25846" aria-label="Café">
  <path d="m131 13.145v0.55724c0 3.1485-2.4323 6.2973-7.6269 6.2973-5.7481 0-8.3729-3.5663-8.3729-8.6654v-0.33448h3.3157l0.028 0.64069c0.16636 3.65 1.6587 5.5172 5.0297 5.5172 3.2056 0 4.4484-2.034 4.4484-3.455v-0.55724h3.1783"/>
  <path d="m131 6.8547v-0.55739c0-3.1484-2.1552-6.2973-7.6269-6.2973-5.7481 0-8.3729 3.5667-8.3729 8.6654v0.33448h3.3157l0.028-0.64095c0.16636-3.65 1.6587-5.5172 5.0297-5.5172 3.2056 0 4.4484 2.034 4.4484 3.455v0.55739h3.1783"/>
  <path d="m140 16h4l-1.305-4h-1.333l-1.3618 4"/>
  <path d="m140 0 8 20h3.7137l-8.3477-20h-3.6522"/>
  <path d="m141 5.3554-5.4057 14.644h-3.594l7.3064-19 1.6933 4.3554"/>
  <path d="m154 20h3v-20h-3v20"/>
  <path d="m159 12 9-0v-3l-9 0v3"/>
  <path d="m159 3h10v-3h-10v3"/>
  <path d="m172 20h3v-20h-3v20"/>
  <path d="m177 20 10-0v-3l-10 0v3"/>
  <path d="m177 12 9-0v-3l-9 0v3"/>
  <path d="m177 3h10v-3h-10v3"/>
 </g>
</svg>
