<svg width="724.63" height="77.199" version="1.1" viewBox="0 0 724.63 77.199" xmlns="http://www.w3.org/2000/svg"><g transform="matrix(1.3333 0 0 -1.3333 -15.629 133.08)"><g transform="scale(.1)"><g fill="#2d378b"><path d="m368.55 614.91 70.398-195.76h97.422l-70.398 195.76h-97.422"/><path d="m255.98 997.33h149.2c85.117 0 197.71-16.394 197.71-178.62 0-151.02-107.09-168.28-197.71-168.28h-149.2v88.887l153.78 0.863c91.523 0.859 97.929 42.285 97.929 79.391 0 37.109-6.406 88.878-97.929 88.878h-153.78v88.887"/><path d="m1389.7 997.33h149.2c85.13 0 197.72-16.394 197.72-178.62 0-151.02-107.1-168.28-197.72-168.28h-149.2v88.887l153.78 0.863c91.53 0.859 97.94 42.285 97.94 79.391 0 37.109-6.41 88.878-97.94 88.878h-153.78v88.887"/><path d="m117.22 419.16h92.507v578.18h-92.507v-578.18"/><path d="m2843.1 614.91 70.4-195.76h97.42l-70.4 195.76h-97.42"/><path d="m2730.6 997.33h149.2c85.13 0 197.72-16.394 197.72-178.62 0-151.02-107.1-168.28-197.72-168.28h-149.2v88.887l153.78 0.863c91.52 0.859 97.93 42.285 97.93 79.391 0 37.109-6.41 88.878-97.93 88.878h-153.78v88.887"/><path d="m2591.8 419.16h92.51v578.18h-92.51v-578.18"/><path d="m1250.4 419.16h92.51v578.18h-92.51v-578.18"/><path d="m834.16 419.16 300.96 1.528v90.98l-300.96-1.527v-90.981"/><path d="m834.16 660.34 256.58 1.527v90.977l-256.58-1.528v-90.976"/><path d="m834.16 904.82h292.09v92.508h-292.09v-92.508"/><path d="m695.4 419.99h92.511v578.17h-92.511v-578.17"/></g><g fill="#f25846"><path d="m4742.6 660.34 256.55 1.527v90.977l-256.55-1.528v-90.976"/><path d="m4742.6 904.82h292.07v92.508h-292.07v-92.508"/><path d="m4603.9 419.99h92.52v578.17h-92.52v-578.17"/><path d="m5251.1 419.16 300.98 1.528v90.98l-300.98-1.527v-90.981"/><path d="m5251.1 660.34 256.59 1.527v90.977l-256.59-1.528v-90.976"/><path d="m5251.1 904.82h292.11v92.508h-292.11v-92.508"/><path d="m5112.4 419.99h92.52v578.17h-92.52v-578.17"/></g><g fill="#2d378b"><path d="m1945.1 534.79h115.64l-37.73 115.64h-38.54l-39.37-115.64"/><path d="m1974.5 832.96-157.05-413.81h-104.43l212.29 536.88 49.19-123.07"/><path d="m1953.8 997.34 232.99-578.18h104.42l-234.72 578.18h-102.69"/></g><g fill="#f25846"><path d="m4188.4 534.79h115.64l-37.73 115.64h-38.55l-39.36-115.64"/><path d="m4217.8 832.96-157.07-413.81h-104.43l212.3 536.88 49.2-123.07"/><path d="m4197.1 997.34 232.97-578.18h104.44l-234.74 578.18h-102.67"/></g><path d="m2383.7 419.16h92.51v578.18h-92.51v-578.18" fill="#2d378b"/><path d="m3938.8 618.08v-16.172c0-91.375-71.18-182.75-223.19-182.75-168.21 0-245.02 103.5-245.02 251.48v9.707h97.03l0.8-18.594c4.86-105.93 48.54-160.11 147.19-160.11 93.81 0 130.18 59.031 130.18 100.27v16.172h93.01" fill="#f25846"/><path d="m3938.8 798.41v16.176c0 91.371-63.07 182.75-223.19 182.75-168.21 0-245.02-103.51-245.02-251.48v-9.707h97.03l0.8 18.601c4.86 105.93 48.54 160.11 147.19 160.11 93.81 0 130.18-59.031 130.18-100.27v-16.176h93.01" fill="#f25846"/></g></g></svg>
