<?xml version="1.0" encoding="UTF-8" standalone="no"?>
<!-- Created with Inkscape (http://www.inkscape.org/) -->

<svg
   xmlns:dc="http://purl.org/dc/elements/1.1/"
   xmlns:cc="http://creativecommons.org/ns#"
   xmlns:rdf="http://www.w3.org/1999/02/22-rdf-syntax-ns#"
   xmlns:svg="http://www.w3.org/2000/svg"
   xmlns="http://www.w3.org/2000/svg"
   xmlns:sodipodi="http://sodipodi.sourceforge.net/DTD/sodipodi-0.dtd"
   xmlns:inkscape="http://www.inkscape.org/namespaces/inkscape"
   version="1.1"
   id="svg2"
   xml:space="preserve"
   width="36mm"
   height="36mm"
   viewBox="0 0 136.06299 136.063"
   sodipodi:docname="Badge_Repair_Café_Dießen_RGB.svg"
   inkscape:version="0.92.4 5da689c313, 2019-01-14"><metadata
     id="metadata8"><rdf:RDF><cc:Work
         rdf:about=""><dc:format>image/svg+xml</dc:format><dc:type
           rdf:resource="http://purl.org/dc/dcmitype/StillImage" /><dc:title></dc:title></cc:Work></rdf:RDF></metadata><defs
     id="defs6" /><sodipodi:namedview
     pagecolor="#ffffff"
     bordercolor="#666666"
     borderopacity="1"
     objecttolerance="10"
     gridtolerance="10"
     guidetolerance="10"
     inkscape:pageopacity="0"
     inkscape:pageshadow="2"
     inkscape:window-width="1920"
     inkscape:window-height="1148"
     id="namedview4"
     showgrid="false"
     inkscape:zoom="3.0158647"
     inkscape:cx="82.175551"
     inkscape:cy="-12.611156"
     inkscape:window-x="0"
     inkscape:window-y="28"
     inkscape:window-maximized="1"
     inkscape:current-layer="g10"
     fit-margin-left="0"
     fit-margin-top="0"
     fit-margin-right="0"
     fit-margin-bottom="0"
     units="mm" /><g
     id="g10"
     inkscape:groupmode="layer"
     inkscape:label="ink_ext_XXXXXX"
     transform="matrix(1.3333333,0,0,-1.3333333,-202.68745,191.95045)"><g
       id="g893"
       transform="translate(1.3283996,21.801848)"><path
         d="m 177.14839,61.491 7.0398,-19.5754 h 9.7422 l -7.0402,19.5754 h -9.7418 v 0"
         style="fill:#1d1284;fill-opacity:1;fill-rule:nonzero;stroke:none;stroke-width:0.1"
         id="path14"
         inkscape:connector-curvature="0" /><path
         d="m 165.89169,99.7328 h 14.9192 c 8.5129,0 19.7715,-1.6394 19.7715,-17.8633 0,-15.1011 -10.7094,-16.8269 -19.7715,-16.8269 h -14.9192 v 8.8875 l 15.3774,0.0871 c 9.1527,0.0859 9.7937,4.2285 9.7937,7.9394 0,3.711 -0.641,8.8875 -9.7937,8.8875 h -15.3774 v 8.8887 0"
         style="fill:#1d1284;fill-opacity:1;fill-rule:nonzero;stroke:none;stroke-width:0.1"
         id="path16"
         inkscape:connector-curvature="0" /><path
         d="m 152.01559,41.9156 h 9.2507 v 57.8172 h -9.2507 v -57.8172 0"
         style="fill:#1d1284;fill-opacity:1;fill-rule:nonzero;stroke:none;stroke-width:0.1"
         id="path20"
         inkscape:connector-curvature="0" /><path
         d="m 251.40604,62.434544 v -1.6172 c 0,-9.1375 -7.119,-18.2754 -22.32,-18.2754 -16.822,0 -24.502,10.3504 -24.502,25.1485 v 0.9707 h 9.704 l 0.08,-1.8594 c 0.484,-10.5938 4.852,-16.0117 14.718,-16.0117 9.381,0 13.018,5.9035 13.018,10.0273 v 1.6172 h 9.302 v 0"
         style="fill:#ff4212;fill-opacity:1;fill-rule:nonzero;stroke:none;stroke-width:0.1"
         id="path66"
         inkscape:connector-curvature="0" /><path
         d="m 251.40604,80.467744 v 1.6172 c 0,9.1367 -6.309,18.274196 -22.32,18.274196 -16.822,0 -24.502,-10.350396 -24.502,-25.148396 v -0.9696 h 9.704 l 0.08,1.8594 c 0.484,10.5938 4.852,16.0106 14.718,16.0106 9.381,0 13.018,-5.9024 13.018,-10.0262 v -1.6172 h 9.302 v 0"
         style="fill:#ff4212;fill-opacity:1;fill-rule:nonzero;stroke:none;stroke-width:0.1"
         id="path68"
         inkscape:connector-curvature="0" /></g><g
       id="surface16991"
       transform="matrix(0.75000002,0,0,-0.75000002,0,141.73)" /></g></svg>