<?xml version="1.0" standalone="no"?>
<!DOCTYPE svg PUBLIC "-//W3C//DTD SVG 20010904//EN"
 "http://www.w3.org/TR/2001/REC-SVG-20010904/DTD/svg10.dtd">
<svg version="1.0" xmlns="http://www.w3.org/2000/svg"
 width="700.000000pt" height="700.000000pt" viewBox="0 0 700.000000 700.000000"
 preserveAspectRatio="xMidYMid meet">
<metadata>
Created by potrace 1.14, written by Peter Selinger 2001-2017
</metadata>
<g transform="translate(0.000000,700.000000) scale(0.100000,-0.100000)"
fill="#000000" stroke="none">
<path d="M3245 6494 c-754 -77 -1398 -385 -1908 -913 -435 -450 -709 -1009
-809 -1646 -19 -121 -22 -180 -22 -435 0 -255 3 -314 22 -435 100 -639 374
-1195 812 -1649 465 -481 1045 -780 1728 -888 118 -19 177 -22 432 -22 254 0
314 3 435 22 654 102 1219 386 1676 842 221 220 374 421 518 679 166 297 286
653 343 1016 19 121 22 181 22 435 0 254 -3 314 -22 435 -88 562 -312 1064
-665 1485 -416 498 -966 842 -1592 996 -243 60 -378 76 -670 79 -143 2 -278 1
-300 -1z m446 -405 c451 -36 869 -178 1229 -417 176 -117 280 -202 415 -337
788 -788 985 -1981 493 -2983 -122 -249 -294 -488 -493 -687 -715 -715 -1776
-950 -2729 -604 -243 89 -531 253 -746 426 -409 329 -732 827 -869 1344 -190
712 -65 1486 337 2089 117 176 202 280 337 415 535 535 1282 813 2026 754z"/>
<path d="M1697 4743 c-42 -208 -77 -386 -77 -395 0 -12 15 -20 56 -28 30 -7
58 -10 60 -7 8 7 163 770 159 777 -3 4 -22 10 -42 14 -21 3 -47 8 -58 11 -19
6 -25 -16 -98 -372z"/>
<path d="M1951 5023 c-6 -31 -9 -58 -7 -61 3 -2 55 -14 118 -27 127 -27 171
-46 187 -81 27 -60 2 -143 -49 -164 -29 -12 -48 -11 -159 10 -69 12 -131 25
-138 27 -14 5 -39 -105 -26 -117 15 -13 237 -52 299 -52 105 -1 170 47 200
148 17 56 18 151 3 191 -14 38 -56 81 -103 105 -29 15 -273 77 -307 78 -3 0
-11 -26 -18 -57z"/>
<path d="M2560 4956 c0 -2 -36 -179 -80 -392 -44 -213 -79 -389 -77 -391 6 -5
117 -26 121 -22 5 6 163 773 160 777 -1 2 -22 8 -46 13 -24 5 -51 12 -60 15
-10 3 -18 3 -18 0z"/>
<path d="M2721 4870 c-6 -28 -11 -56 -11 -63 0 -14 377 -94 388 -82 8 8 32
108 27 113 -4 4 -374 82 -387 82 -3 0 -11 -23 -17 -50z"/>
<path d="M3237 4423 c-42 -208 -77 -385 -77 -394 0 -12 16 -19 57 -28 31 -6
58 -9 60 -8 5 5 164 779 161 782 -4 2 -108 25 -116 25 -4 0 -42 -170 -85 -377z"/>
<path d="M3491 4703 c-6 -31 -10 -58 -8 -59 1 -2 55 -14 119 -28 124 -26 171
-45 188 -75 15 -29 12 -88 -6 -126 -28 -60 -71 -63 -276 -20 -38 8 -71 15 -73
15 -6 0 -27 -111 -22 -116 12 -12 245 -54 300 -54 76 0 135 25 167 70 54 76
67 215 27 291 -35 66 -88 94 -247 129 -74 16 -140 30 -146 30 -6 0 -16 -26
-23 -57z"/>
<path d="M4277 4569 c4 -19 38 -209 77 -423 l71 -390 50 -13 c102 -27 100 -59
19 377 -39 212 -74 401 -78 421 -6 33 -10 37 -44 42 -20 4 -52 9 -69 13 -33 6
-33 6 -26 -27z"/>
<path d="M2677 4566 c-3 -7 -8 -34 -12 -59 -7 -43 -5 -46 16 -52 108 -25 315
-62 320 -57 11 11 28 107 21 113 -6 5 -315 69 -333 69 -4 0 -9 -6 -12 -14z"/>
<path d="M4005 4227 c-115 -176 -211 -326 -213 -333 -4 -14 126 -41 137 -28 4
5 79 121 166 258 l157 249 -12 76 c-7 42 -15 81 -19 87 -3 7 -100 -132 -216
-309z"/>
<path d="M2010 4524 c0 -5 9 -67 20 -139 11 -71 20 -133 20 -136 0 -8 120 -32
127 -26 6 7 -26 236 -37 263 -6 16 -21 23 -55 29 -26 3 -54 9 -61 12 -8 3 -14
1 -14 -3z"/>
<path d="M4774 4090 l-80 -391 25 -5 c14 -3 41 -10 60 -15 19 -5 36 -7 38 -5
4 4 164 779 161 781 -6 4 -97 25 -110 25 -10 0 -37 -113 -94 -390z"/>
<path d="M5135 4408 c-13 -40 -156 -760 -152 -764 3 -3 30 -11 61 -18 49 -12
56 -12 60 3 8 26 156 748 156 759 0 9 -73 32 -105 32 -8 0 -17 -6 -20 -12z"/>
<path d="M5313 4325 c-5 -31 -7 -57 -4 -59 3 -2 56 -14 116 -26 172 -35 200
-56 193 -145 -9 -108 -50 -123 -233 -85 -136 28 -130 30 -144 -37 -6 -31 -10
-57 -8 -58 8 -8 272 -55 304 -55 135 0 217 98 217 260 0 71 -15 109 -61 152
-38 37 -84 54 -218 83 -157 34 -150 35 -162 -30z"/>
<path d="M2600 4194 c-7 -30 -10 -57 -8 -60 5 -4 401 -85 404 -81 8 9 23 112
17 118 -8 8 -356 79 -385 79 -12 0 -20 -15 -28 -56z"/>
<path d="M4172 4050 c-27 -46 -37 -72 -29 -75 20 -6 117 -25 131 -25 10 0 11
16 4 73 -11 93 -13 97 -41 97 -20 0 -33 -14 -65 -70z"/>
<path d="M2286 3960 c-87 -34 -165 -133 -190 -242 -6 -25 -3 -28 31 -37 96
-23 88 -26 107 35 30 94 99 154 179 154 59 0 131 -28 166 -64 26 -27 34 -45
39 -87 l7 -53 57 -12 c54 -10 57 -10 62 10 26 96 -34 215 -134 266 -100 51
-238 64 -324 30z"/>
<path d="M3180 3823 c0 -9 152 -838 154 -840 1 -1 33 -9 70 -17 67 -14 68 -14
62 8 -2 11 -37 199 -77 416 -39 217 -75 399 -79 404 -8 9 -130 37 -130 29z"/>
<path d="M5393 3693 c11 -76 21 -140 23 -142 1 -2 30 -9 63 -16 73 -15 69 -27
44 148 -18 132 -16 129 -105 142 l-45 7 20 -139z"/>
<path d="M3005 3595 c-65 -99 -162 -247 -216 -330 l-98 -150 65 -14 c56 -12
67 -12 78 0 8 8 82 121 165 252 100 159 151 248 151 265 -1 15 -7 56 -14 92
l-12 65 -119 -180z"/>
<path d="M3725 3689 c-18 -76 -155 -753 -153 -754 8 -7 112 -25 116 -20 4 4
161 746 162 766 0 10 -21 16 -73 24 -43 7 -46 5 -52 -16z"/>
<path d="M3916 3662 c-10 -16 -18 -112 -10 -112 5 0 93 -18 195 -39 l187 -38
12 59 c6 33 10 61 8 62 -5 4 -363 76 -375 76 -7 0 -14 -4 -17 -8z"/>
<path d="M2065 3555 c-27 -210 98 -352 326 -372 145 -12 274 70 290 187 4 22
-1 25 -54 36 -58 11 -58 11 -68 -15 -27 -70 -98 -108 -182 -97 -129 18 -192
94 -185 225 l3 65 -40 8 c-22 4 -50 10 -62 13 -20 5 -22 0 -28 -50z"/>
<path d="M4420 3566 c0 -4 -147 -718 -155 -753 -4 -19 1 -23 51 -33 31 -7 59
-8 63 -3 7 7 162 745 161 765 0 10 -120 34 -120 24z"/>
<path d="M4607 3516 c-3 -7 -8 -34 -12 -59 -7 -43 -5 -46 16 -52 23 -5 362
-75 365 -75 7 0 24 114 17 119 -6 6 -354 81 -375 81 -3 0 -8 -6 -11 -14z"/>
<path d="M3081 3281 c-22 -38 -41 -71 -41 -74 0 -5 140 -30 145 -25 4 3 -13
149 -17 153 -2 2 -13 5 -24 9 -18 6 -27 -4 -63 -63z"/>
<path d="M3847 3327 c-3 -8 -8 -35 -12 -60 l-7 -45 54 -11 c29 -6 106 -22 170
-35 l117 -23 12 54 c8 32 9 57 3 62 -5 4 -72 20 -149 35 -77 15 -150 30 -161
32 -13 4 -23 0 -27 -9z"/>
<path d="M4530 3144 c-7 -30 -9 -58 -6 -61 7 -7 330 -73 334 -68 4 4 30 115
27 115 -4 0 -299 60 -322 65 -19 4 -23 -1 -33 -51z"/>
<path d="M1528 2727 c-42 -199 -73 -365 -70 -369 17 -16 277 -60 327 -55 157
16 260 125 301 319 40 189 -37 346 -197 404 -43 15 -251 64 -273 64 -6 0 -43
-153 -88 -363z m247 219 c165 -43 218 -152 166 -339 -43 -154 -130 -210 -288
-183 -30 6 -43 13 -43 24 0 27 104 512 110 512 3 0 28 -6 55 -14z"/>
<path d="M4461 2813 c-6 -31 -9 -58 -8 -60 5 -4 400 -84 402 -80 4 5 23 112
21 115 -2 1 -394 82 -401 82 -1 0 -7 -26 -14 -57z"/>
<path d="M2878 2724 l-24 -79 -46 2 c-44 1 -46 0 -52 -29 -12 -58 -8 -67 29
-74 19 -3 35 -10 35 -14 0 -4 -14 -72 -31 -151 -45 -214 -34 -278 56 -323 26
-13 61 -20 105 -20 l65 -1 3 43 c2 28 -1 43 -10 46 -7 2 -31 8 -53 12 -69 15
-72 37 -34 220 26 128 35 154 48 150 50 -14 123 -28 126 -25 2 2 6 25 10 51
l7 47 -38 9 c-22 6 -51 13 -66 16 -33 7 -33 11 -12 105 9 40 15 74 13 76 -3 2
-28 7 -56 11 l-51 6 -24 -78z"/>
<path d="M2311 2725 c-35 -8 -65 -16 -67 -18 -2 -1 3 -23 10 -47 11 -35 18
-44 32 -42 137 20 194 10 220 -40 8 -16 14 -39 12 -50 -3 -20 -9 -21 -118 -22
-98 -1 -122 -5 -162 -24 -57 -28 -87 -72 -95 -140 -10 -88 35 -148 130 -174
45 -12 65 -9 179 29 15 4 17 1 12 -25 -6 -29 -5 -30 46 -41 29 -6 55 -9 58 -7
8 8 81 369 82 401 1 156 -147 243 -339 200z m171 -315 c14 0 15 -6 8 -32 -4
-18 -11 -45 -14 -59 -6 -29 -64 -59 -112 -59 -35 0 -81 26 -89 51 -20 63 56
114 155 103 19 -2 43 -4 52 -4z"/>
<path d="M3281 2699 c-4 -13 -17 -50 -27 -83 l-18 -58 -43 5 c-46 5 -45 6 -58
-59 -6 -30 -4 -32 32 -41 21 -5 37 -14 36 -19 0 -5 -15 -77 -32 -161 -33 -162
-33 -207 -1 -261 25 -40 83 -65 163 -70 l67 -4 0 51 c0 50 0 51 -31 51 -32 0
-69 15 -81 34 -14 20 -8 79 20 206 l28 125 29 -1 c17 0 49 -4 71 -8 l41 -7 12
45 c6 25 11 47 11 50 0 3 -26 10 -59 17 -32 6 -63 14 -69 18 -7 4 -5 31 5 84
10 46 12 82 7 87 -5 5 -28 12 -51 16 -39 6 -43 4 -52 -17z"/>
<path d="M4220 2596 c0 -3 -31 -153 -70 -335 -76 -358 -82 -413 -50 -454 21
-27 74 -47 123 -47 26 0 27 2 27 46 0 35 -5 50 -22 64 l-22 17 68 319 c37 176
70 329 73 341 4 18 -1 23 -34 31 -71 18 -93 22 -93 18z"/>
<path d="M3694 2438 c-58 -19 -127 -81 -157 -138 -74 -147 -46 -312 68 -390
80 -55 205 -72 290 -40 22 8 23 10 11 52 l-13 43 -74 -3 c-83 -3 -128 14 -161
59 -22 29 -41 100 -30 111 4 4 81 -9 170 -28 90 -19 168 -32 173 -29 27 17 38
164 18 226 -18 52 -56 97 -102 120 -48 25 -146 34 -193 17z m145 -112 c15 -8
32 -26 39 -41 12 -26 17 -95 7 -95 -5 0 -148 31 -212 45 -32 7 -29 22 16 66
32 33 45 39 80 39 23 0 54 -6 70 -14z"/>
<path d="M4421 2032 c-30 -141 -55 -266 -55 -276 -1 -16 10 -22 59 -32 33 -7
61 -11 62 -10 1 1 18 77 37 169 20 92 38 178 42 192 13 50 116 81 174 52 45
-23 46 -58 6 -253 -21 -99 -39 -186 -42 -195 -3 -12 9 -18 58 -27 34 -6 64 -9
67 -7 2 3 22 85 42 183 46 211 50 293 16 343 -48 73 -158 93 -255 47 l-52 -25
0 37 c0 36 -2 38 -44 49 -25 6 -48 11 -53 11 -4 0 -32 -116 -62 -258z"/>
</g>
</svg>
